<mxfile host="Electron" modified="2024-01-03T08:42:59.655Z" agent="Mozilla/5.0 (Windows NT 10.0; Win64; x64) AppleWebKit/537.36 (KHTML, like Gecko) draw.io/22.1.16 Chrome/120.0.6099.109 Electron/28.1.0 Safari/537.36" etag="jdVrW8Utw_DWLSmrW9qM" version="22.1.16" type="device" pages="5">
  <diagram id="C5RBs43oDa-KdzZeNtuy" name="Flowchart">
    <mxGraphModel dx="1420" dy="856" grid="1" gridSize="10" guides="1" tooltips="1" connect="1" arrows="1" fold="1" page="1" pageScale="1" pageWidth="827" pageHeight="1169" math="0" shadow="0">
      <root>
        <mxCell id="WIyWlLk6GJQsqaUBKTNV-0" />
        <mxCell id="WIyWlLk6GJQsqaUBKTNV-1" parent="WIyWlLk6GJQsqaUBKTNV-0" />
        <mxCell id="Y-0_W2tjziuRLicf-Nkw-0" value="Mulai" style="strokeWidth=2;html=1;shape=mxgraph.flowchart.start_1;whiteSpace=wrap;" parent="WIyWlLk6GJQsqaUBKTNV-1" vertex="1">
          <mxGeometry x="262" y="15" width="130" height="60" as="geometry" />
        </mxCell>
        <mxCell id="0LLnvMhg4QWHjou7vQFV-0" value="" style="endArrow=classic;html=1;rounded=0;exitX=0.5;exitY=1;exitDx=0;exitDy=0;exitPerimeter=0;" parent="WIyWlLk6GJQsqaUBKTNV-1" source="NQGPYRuu8is7qID9K1Ec-0" target="0LLnvMhg4QWHjou7vQFV-1" edge="1">
          <mxGeometry width="50" height="50" relative="1" as="geometry">
            <mxPoint x="314" y="375" as="sourcePoint" />
            <mxPoint x="328" y="255" as="targetPoint" />
          </mxGeometry>
        </mxCell>
        <mxCell id="0LLnvMhg4QWHjou7vQFV-1" value="Pasien Lama?" style="whiteSpace=wrap;html=1;strokeWidth=2;shape=mxgraph.flowchart.decision;" parent="WIyWlLk6GJQsqaUBKTNV-1" vertex="1">
          <mxGeometry x="267" y="255" width="120" height="90" as="geometry" />
        </mxCell>
        <mxCell id="0LLnvMhg4QWHjou7vQFV-9" value="Tidak" style="edgeStyle=orthogonalEdgeStyle;rounded=0;orthogonalLoop=1;jettySize=auto;html=1;exitX=1;exitY=0.5;exitDx=0;exitDy=0;entryX=1;entryY=0.5;entryDx=0;entryDy=0;exitPerimeter=0;" parent="WIyWlLk6GJQsqaUBKTNV-1" source="0LLnvMhg4QWHjou7vQFV-6" target="NQGPYRuu8is7qID9K1Ec-0" edge="1">
          <mxGeometry x="-0.3312" relative="1" as="geometry">
            <mxPoint x="565" y="411.9999999999999" as="targetPoint" />
            <Array as="points">
              <mxPoint x="587" y="552" />
              <mxPoint x="587" y="210" />
            </Array>
            <mxPoint as="offset" />
            <mxPoint x="405.9999999999998" y="552" as="sourcePoint" />
          </mxGeometry>
        </mxCell>
        <mxCell id="0LLnvMhg4QWHjou7vQFV-2" value="Form yang diisi:&lt;br style=&quot;border-color: var(--border-color);&quot;&gt;&lt;span style=&quot;&quot;&gt;- Data lengkap pasien&lt;/span&gt;&lt;br style=&quot;border-color: var(--border-color);&quot;&gt;&lt;span style=&quot;&quot;&gt;- No. WhatsApp/email&lt;/span&gt;&lt;br style=&quot;border-color: var(--border-color);&quot;&gt;&lt;span style=&quot;&quot;&gt;- Tgl/waktu kontrol&lt;/span&gt;&lt;br style=&quot;border-color: var(--border-color);&quot;&gt;&lt;span style=&quot;&quot;&gt;- Dokter&lt;/span&gt;" style="whiteSpace=wrap;html=1;rounded=1;absoluteArcSize=1;arcSize=14;strokeWidth=2;align=left;" parent="WIyWlLk6GJQsqaUBKTNV-1" vertex="1">
          <mxGeometry x="439.25" y="382" width="133.5" height="83" as="geometry" />
        </mxCell>
        <mxCell id="0LLnvMhg4QWHjou7vQFV-7" value="" style="edgeStyle=orthogonalEdgeStyle;rounded=0;orthogonalLoop=1;jettySize=auto;html=1;" parent="WIyWlLk6GJQsqaUBKTNV-1" source="0LLnvMhg4QWHjou7vQFV-4" target="0LLnvMhg4QWHjou7vQFV-6" edge="1">
          <mxGeometry relative="1" as="geometry" />
        </mxCell>
        <mxCell id="0LLnvMhg4QWHjou7vQFV-4" value="&lt;div style=&quot;text-align: left;&quot;&gt;&lt;span style=&quot;background-color: initial;&quot;&gt;Form yang diisi:&lt;/span&gt;&lt;/div&gt;&lt;div style=&quot;text-align: left;&quot;&gt;&lt;span style=&quot;background-color: initial;&quot;&gt;- No. RM&lt;/span&gt;&lt;/div&gt;&lt;div style=&quot;border-color: var(--border-color); text-align: left;&quot;&gt;&lt;span style=&quot;border-color: var(--border-color); background-color: initial;&quot;&gt;- No. WhatsApp/email&lt;/span&gt;&lt;/div&gt;&lt;div style=&quot;border-color: var(--border-color); text-align: left;&quot;&gt;&lt;span style=&quot;border-color: var(--border-color); background-color: initial;&quot;&gt;- Tgl/waktu kontrol&lt;/span&gt;&lt;/div&gt;&lt;div style=&quot;border-color: var(--border-color); text-align: left;&quot;&gt;&lt;span style=&quot;border-color: var(--border-color); background-color: initial;&quot;&gt;- Dokter&lt;/span&gt;&lt;/div&gt;" style="whiteSpace=wrap;html=1;rounded=1;absoluteArcSize=1;arcSize=14;strokeWidth=2;" parent="WIyWlLk6GJQsqaUBKTNV-1" vertex="1">
          <mxGeometry x="262.5" y="382" width="131" height="83" as="geometry" />
        </mxCell>
        <mxCell id="0LLnvMhg4QWHjou7vQFV-6" value="Data Lengkap&amp;nbsp;&lt;br&gt;dan Valid?" style="whiteSpace=wrap;html=1;strokeWidth=2;shape=mxgraph.flowchart.decision;" parent="WIyWlLk6GJQsqaUBKTNV-1" vertex="1">
          <mxGeometry x="249" y="512" width="158" height="80" as="geometry" />
        </mxCell>
        <mxCell id="0LLnvMhg4QWHjou7vQFV-10" value="Datang &lt;br&gt;mengantri sesuai &lt;br&gt;Nomor Antrian" style="whiteSpace=wrap;html=1;verticalLabelPosition=middle;shape=trapezoid;size=0.23;arcSize=10;flipV=1;labelPosition=center;perimeter=trapezoidPerimeter;" parent="WIyWlLk6GJQsqaUBKTNV-1" vertex="1">
          <mxGeometry x="252" y="765" width="150" height="60" as="geometry" />
        </mxCell>
        <mxCell id="0LLnvMhg4QWHjou7vQFV-16" value="Pasien Lama BPJS?" style="whiteSpace=wrap;html=1;strokeWidth=2;shape=mxgraph.flowchart.decision;" parent="WIyWlLk6GJQsqaUBKTNV-1" vertex="1">
          <mxGeometry x="247.5" y="865" width="160" height="80" as="geometry" />
        </mxCell>
        <mxCell id="0LLnvMhg4QWHjou7vQFV-17" value="Registrasi Ulang &lt;br&gt;di mesin APM" style="rounded=0;whiteSpace=wrap;html=1;verticalLabelPosition=middle;shape=trapezoid;perimeter=trapezoidPerimeter;size=0.23;arcSize=10;flipV=1;labelPosition=center;" parent="WIyWlLk6GJQsqaUBKTNV-1" vertex="1">
          <mxGeometry x="242" y="985" width="170" height="60" as="geometry" />
        </mxCell>
        <mxCell id="0LLnvMhg4QWHjou7vQFV-18" value="Registrasi Ulang di Loket Pendaftaran Online" style="rounded=0;whiteSpace=wrap;html=1;verticalLabelPosition=middle;shape=trapezoid;perimeter=trapezoidPerimeter;size=0.23;arcSize=10;flipV=1;labelPosition=center;fontSize=12;" parent="WIyWlLk6GJQsqaUBKTNV-1" vertex="1">
          <mxGeometry x="421" y="985" width="170" height="60" as="geometry" />
        </mxCell>
        <mxCell id="0LLnvMhg4QWHjou7vQFV-19" value="" style="endArrow=classic;html=1;rounded=0;entryX=0.5;entryY=0;entryDx=0;entryDy=0;exitX=1;exitY=0.5;exitDx=0;exitDy=0;" parent="WIyWlLk6GJQsqaUBKTNV-1" source="0LLnvMhg4QWHjou7vQFV-16" target="0LLnvMhg4QWHjou7vQFV-18" edge="1">
          <mxGeometry width="50" height="50" relative="1" as="geometry">
            <mxPoint x="306" y="967" as="sourcePoint" />
            <mxPoint x="356" y="917" as="targetPoint" />
            <Array as="points">
              <mxPoint x="506" y="905" />
              <mxPoint x="506" y="982" />
            </Array>
          </mxGeometry>
        </mxCell>
        <mxCell id="etCVzYmtN3_S_9bxmXlC-2" value="Tidak" style="edgeLabel;html=1;align=center;verticalAlign=middle;resizable=0;points=[];" parent="0LLnvMhg4QWHjou7vQFV-19" vertex="1" connectable="0">
          <mxGeometry x="-0.3554" relative="1" as="geometry">
            <mxPoint x="-1" as="offset" />
          </mxGeometry>
        </mxCell>
        <mxCell id="0LLnvMhg4QWHjou7vQFV-22" value="Menerima Bukti Pendaftaran&lt;br&gt;dan Nomor Antrian" style="shape=mxgraph.flowchart.document2;whiteSpace=wrap;html=1;boundedLbl=1;strokeWidth=2;size=0.25;" parent="WIyWlLk6GJQsqaUBKTNV-1" vertex="1">
          <mxGeometry x="268" y="642" width="119" height="83" as="geometry" />
        </mxCell>
        <mxCell id="0LLnvMhg4QWHjou7vQFV-25" value="" style="endArrow=classic;html=1;rounded=0;entryX=0.5;entryY=0;entryDx=0;entryDy=0;exitX=0.492;exitY=0.908;exitDx=0;exitDy=0;exitPerimeter=0;" parent="WIyWlLk6GJQsqaUBKTNV-1" source="0LLnvMhg4QWHjou7vQFV-22" target="0LLnvMhg4QWHjou7vQFV-10" edge="1">
          <mxGeometry width="50" height="50" relative="1" as="geometry">
            <mxPoint x="327" y="705" as="sourcePoint" />
            <mxPoint x="321" y="742" as="targetPoint" />
          </mxGeometry>
        </mxCell>
        <mxCell id="IPXBGeWQJr2fZi3OIg5Y-1" value="Ya" style="endArrow=classic;html=1;rounded=0;entryX=0.5;entryY=0;entryDx=0;entryDy=0;exitX=0.5;exitY=1;exitDx=0;exitDy=0;" parent="WIyWlLk6GJQsqaUBKTNV-1" source="0LLnvMhg4QWHjou7vQFV-6" target="0LLnvMhg4QWHjou7vQFV-22" edge="1">
          <mxGeometry width="50" height="50" relative="1" as="geometry">
            <mxPoint x="310" y="602" as="sourcePoint" />
            <mxPoint x="360" y="552" as="targetPoint" />
          </mxGeometry>
        </mxCell>
        <mxCell id="AWqm-ige924Oo4-5Qk6T-0" value="" style="endArrow=classic;html=1;rounded=0;entryX=0.5;entryY=0;entryDx=0;entryDy=0;exitX=0.5;exitY=1;exitDx=0;exitDy=0;entryPerimeter=0;" parent="WIyWlLk6GJQsqaUBKTNV-1" source="0LLnvMhg4QWHjou7vQFV-17" target="u67ikrGrel9OPWI39Cx4-3" edge="1">
          <mxGeometry width="50" height="50" relative="1" as="geometry">
            <mxPoint x="322" y="1297" as="sourcePoint" />
            <mxPoint x="326" y="1204" as="targetPoint" />
          </mxGeometry>
        </mxCell>
        <mxCell id="AWqm-ige924Oo4-5Qk6T-1" value="" style="endArrow=classic;html=1;rounded=0;exitX=0.5;exitY=1;exitDx=0;exitDy=0;entryX=1;entryY=0.5;entryDx=0;entryDy=0;entryPerimeter=0;" parent="WIyWlLk6GJQsqaUBKTNV-1" source="0LLnvMhg4QWHjou7vQFV-18" target="u67ikrGrel9OPWI39Cx4-3" edge="1">
          <mxGeometry width="50" height="50" relative="1" as="geometry">
            <mxPoint x="308" y="1357" as="sourcePoint" />
            <mxPoint x="386" y="1244" as="targetPoint" />
            <Array as="points">
              <mxPoint x="506" y="1120" />
            </Array>
          </mxGeometry>
        </mxCell>
        <mxCell id="etCVzYmtN3_S_9bxmXlC-4" value="" style="endArrow=classic;html=1;rounded=0;exitX=0.5;exitY=1;exitDx=0;exitDy=0;" parent="WIyWlLk6GJQsqaUBKTNV-1" source="0LLnvMhg4QWHjou7vQFV-2" edge="1">
          <mxGeometry width="50" height="50" relative="1" as="geometry">
            <mxPoint x="411" y="532" as="sourcePoint" />
            <mxPoint x="331" y="482" as="targetPoint" />
            <Array as="points">
              <mxPoint x="506" y="482" />
            </Array>
          </mxGeometry>
        </mxCell>
        <mxCell id="Y_wqMJszYOcG-6Hk5GyN-2" value="" style="endArrow=classic;html=1;rounded=0;entryX=0.5;entryY=0;entryDx=0;entryDy=0;exitX=0.5;exitY=1;exitDx=0;exitDy=0;" parent="WIyWlLk6GJQsqaUBKTNV-1" source="0LLnvMhg4QWHjou7vQFV-16" target="0LLnvMhg4QWHjou7vQFV-17" edge="1">
          <mxGeometry width="50" height="50" relative="1" as="geometry">
            <mxPoint x="375" y="927" as="sourcePoint" />
            <mxPoint x="425" y="877" as="targetPoint" />
          </mxGeometry>
        </mxCell>
        <mxCell id="u67ikrGrel9OPWI39Cx4-20" value="Ya" style="edgeLabel;html=1;align=center;verticalAlign=middle;resizable=0;points=[];" parent="Y_wqMJszYOcG-6Hk5GyN-2" vertex="1" connectable="0">
          <mxGeometry x="-0.3402" y="2" relative="1" as="geometry">
            <mxPoint as="offset" />
          </mxGeometry>
        </mxCell>
        <mxCell id="u67ikrGrel9OPWI39Cx4-3" value="Selesai" style="strokeWidth=2;html=1;shape=mxgraph.flowchart.terminator;whiteSpace=wrap;" parent="WIyWlLk6GJQsqaUBKTNV-1" vertex="1">
          <mxGeometry x="271.5" y="1085" width="113" height="70" as="geometry" />
        </mxCell>
        <mxCell id="u67ikrGrel9OPWI39Cx4-11" value="" style="edgeStyle=orthogonalEdgeStyle;rounded=0;orthogonalLoop=1;jettySize=auto;html=1;entryX=0.5;entryY=0;entryDx=0;entryDy=0;" parent="WIyWlLk6GJQsqaUBKTNV-1" source="0LLnvMhg4QWHjou7vQFV-1" target="0LLnvMhg4QWHjou7vQFV-4" edge="1">
          <mxGeometry relative="1" as="geometry">
            <mxPoint x="328" y="225" as="sourcePoint" />
            <mxPoint x="328" y="265" as="targetPoint" />
          </mxGeometry>
        </mxCell>
        <mxCell id="u67ikrGrel9OPWI39Cx4-15" value="Ya" style="edgeLabel;html=1;align=center;verticalAlign=middle;resizable=0;points=[];" parent="u67ikrGrel9OPWI39Cx4-11" vertex="1" connectable="0">
          <mxGeometry x="0.32" y="-1" relative="1" as="geometry">
            <mxPoint x="1" y="-6" as="offset" />
          </mxGeometry>
        </mxCell>
        <mxCell id="u67ikrGrel9OPWI39Cx4-12" value="" style="edgeStyle=orthogonalEdgeStyle;rounded=0;orthogonalLoop=1;jettySize=auto;html=1;" parent="WIyWlLk6GJQsqaUBKTNV-1" source="0LLnvMhg4QWHjou7vQFV-1" target="0LLnvMhg4QWHjou7vQFV-2" edge="1">
          <mxGeometry x="-0.414" relative="1" as="geometry">
            <mxPoint as="offset" />
            <mxPoint x="388" y="180" as="sourcePoint" />
            <mxPoint x="506" y="265" as="targetPoint" />
          </mxGeometry>
        </mxCell>
        <mxCell id="u67ikrGrel9OPWI39Cx4-16" value="Tidak" style="edgeLabel;html=1;align=center;verticalAlign=middle;resizable=0;points=[];" parent="u67ikrGrel9OPWI39Cx4-12" vertex="1" connectable="0">
          <mxGeometry x="0.781" relative="1" as="geometry">
            <mxPoint y="2" as="offset" />
          </mxGeometry>
        </mxCell>
        <mxCell id="u67ikrGrel9OPWI39Cx4-19" value="" style="endArrow=classic;html=1;rounded=0;entryX=0.5;entryY=0;entryDx=0;entryDy=0;entryPerimeter=0;" parent="WIyWlLk6GJQsqaUBKTNV-1" source="0LLnvMhg4QWHjou7vQFV-10" target="0LLnvMhg4QWHjou7vQFV-16" edge="1">
          <mxGeometry width="50" height="50" relative="1" as="geometry">
            <mxPoint x="241" y="832" as="sourcePoint" />
            <mxPoint x="291" y="782" as="targetPoint" />
          </mxGeometry>
        </mxCell>
        <mxCell id="hFQhq1CJekrQIGTJt0gv-0" value="" style="endArrow=classic;html=1;rounded=0;exitX=0.5;exitY=1;exitDx=0;exitDy=0;exitPerimeter=0;" parent="WIyWlLk6GJQsqaUBKTNV-1" source="Y-0_W2tjziuRLicf-Nkw-0" target="hFQhq1CJekrQIGTJt0gv-1" edge="1">
          <mxGeometry width="50" height="50" relative="1" as="geometry">
            <mxPoint x="328" y="105" as="sourcePoint" />
            <mxPoint x="328" y="175" as="targetPoint" />
          </mxGeometry>
        </mxCell>
        <mxCell id="hFQhq1CJekrQIGTJt0gv-1" value="Membuka Website Pendaftaran" style="rounded=1;whiteSpace=wrap;html=1;absoluteArcSize=1;arcSize=14;strokeWidth=2;" parent="WIyWlLk6GJQsqaUBKTNV-1" vertex="1">
          <mxGeometry x="237" y="105" width="180" height="50" as="geometry" />
        </mxCell>
        <mxCell id="NQGPYRuu8is7qID9K1Ec-1" value="" style="endArrow=classic;html=1;rounded=0;exitX=0.5;exitY=1;exitDx=0;exitDy=0;exitPerimeter=0;" parent="WIyWlLk6GJQsqaUBKTNV-1" source="hFQhq1CJekrQIGTJt0gv-1" target="NQGPYRuu8is7qID9K1Ec-0" edge="1">
          <mxGeometry width="50" height="50" relative="1" as="geometry">
            <mxPoint x="327" y="145" as="sourcePoint" />
            <mxPoint x="328" y="215" as="targetPoint" />
          </mxGeometry>
        </mxCell>
        <mxCell id="NQGPYRuu8is7qID9K1Ec-0" value="Mengisi Formulir Pendaftaran Pasien" style="rounded=1;whiteSpace=wrap;html=1;absoluteArcSize=1;arcSize=14;strokeWidth=2;" parent="WIyWlLk6GJQsqaUBKTNV-1" vertex="1">
          <mxGeometry x="238" y="185" width="180" height="50" as="geometry" />
        </mxCell>
      </root>
    </mxGraphModel>
  </diagram>
  <diagram id="7AGozjPKoP4nCB66m2UY" name="DFD">
    <mxGraphModel dx="1671" dy="1007" grid="1" gridSize="10" guides="1" tooltips="1" connect="1" arrows="1" fold="1" page="1" pageScale="1" pageWidth="1169" pageHeight="827" math="0" shadow="0">
      <root>
        <mxCell id="0" />
        <mxCell id="1" parent="0" />
        <mxCell id="LYkPNBGk0QLhgLuBFVw5-9" style="edgeStyle=orthogonalEdgeStyle;rounded=0;orthogonalLoop=1;jettySize=auto;html=1;exitX=0;exitY=1;exitDx=0;exitDy=0;entryX=1;entryY=0.75;entryDx=0;entryDy=0;" parent="1" source="LYkPNBGk0QLhgLuBFVw5-1" target="QkrbeRbu-FCpaSNZFsPW-1" edge="1">
          <mxGeometry relative="1" as="geometry">
            <mxPoint x="310" y="444" as="targetPoint" />
            <Array as="points" />
            <mxPoint x="540.0000000000011" y="444" as="sourcePoint" />
          </mxGeometry>
        </mxCell>
        <mxCell id="QrNxaTxZnVfAH5GrB2b3-3" value="Bukti Pendaftaran dan Nomor Antrian" style="edgeLabel;html=1;align=center;verticalAlign=middle;resizable=0;points=[];fontSize=12;" parent="LYkPNBGk0QLhgLuBFVw5-9" vertex="1" connectable="0">
          <mxGeometry x="0.0631" y="-1" relative="1" as="geometry">
            <mxPoint x="6" y="1" as="offset" />
          </mxGeometry>
        </mxCell>
        <mxCell id="LYkPNBGk0QLhgLuBFVw5-13" style="edgeStyle=orthogonalEdgeStyle;rounded=0;orthogonalLoop=1;jettySize=auto;html=1;exitX=1;exitY=0;exitDx=0;exitDy=0;entryX=0;entryY=0.25;entryDx=0;entryDy=0;" parent="1" source="LYkPNBGk0QLhgLuBFVw5-1" target="LYkPNBGk0QLhgLuBFVw5-4" edge="1">
          <mxGeometry relative="1" as="geometry">
            <mxPoint x="849" y="384" as="targetPoint" />
          </mxGeometry>
        </mxCell>
        <mxCell id="QrNxaTxZnVfAH5GrB2b3-5" value="Data Pasien" style="edgeLabel;html=1;align=center;verticalAlign=middle;resizable=0;points=[];fontSize=12;" parent="LYkPNBGk0QLhgLuBFVw5-13" vertex="1" connectable="0">
          <mxGeometry x="-0.1154" y="-2" relative="1" as="geometry">
            <mxPoint x="20" y="-1" as="offset" />
          </mxGeometry>
        </mxCell>
        <mxCell id="LYkPNBGk0QLhgLuBFVw5-1" value="Sistem Pendaftaran Pasien" style="ellipse;whiteSpace=wrap;html=1;aspect=fixed;fontSize=14;" parent="1" vertex="1">
          <mxGeometry x="540" y="370.5" width="87" height="87" as="geometry" />
        </mxCell>
        <mxCell id="LYkPNBGk0QLhgLuBFVw5-11" style="edgeStyle=orthogonalEdgeStyle;rounded=0;orthogonalLoop=1;jettySize=auto;html=1;exitX=0;exitY=0.75;exitDx=0;exitDy=0;" parent="1" target="LYkPNBGk0QLhgLuBFVw5-1" edge="1">
          <mxGeometry relative="1" as="geometry">
            <mxPoint x="860" y="413.62" as="sourcePoint" />
            <mxPoint x="630" y="414" as="targetPoint" />
            <Array as="points" />
          </mxGeometry>
        </mxCell>
        <mxCell id="QrNxaTxZnVfAH5GrB2b3-2" value="Jadwal Dokter" style="edgeLabel;html=1;align=center;verticalAlign=middle;resizable=0;points=[];fontSize=12;" parent="LYkPNBGk0QLhgLuBFVw5-11" vertex="1" connectable="0">
          <mxGeometry x="-0.1584" y="1" relative="1" as="geometry">
            <mxPoint x="-22" y="-1" as="offset" />
          </mxGeometry>
        </mxCell>
        <mxCell id="LYkPNBGk0QLhgLuBFVw5-4" value="Admin" style="whiteSpace=wrap;html=1;aspect=fixed;fontSize=14;" parent="1" vertex="1">
          <mxGeometry x="860" y="354" width="120" height="120" as="geometry" />
        </mxCell>
        <mxCell id="LYkPNBGk0QLhgLuBFVw5-8" style="edgeStyle=orthogonalEdgeStyle;rounded=0;orthogonalLoop=1;jettySize=auto;html=1;exitX=1;exitY=0.25;exitDx=0;exitDy=0;entryX=0;entryY=0;entryDx=0;entryDy=0;" parent="1" source="QkrbeRbu-FCpaSNZFsPW-1" target="LYkPNBGk0QLhgLuBFVw5-1" edge="1">
          <mxGeometry relative="1" as="geometry">
            <mxPoint x="309" y="394" as="sourcePoint" />
          </mxGeometry>
        </mxCell>
        <mxCell id="QrNxaTxZnVfAH5GrB2b3-1" value="Data Pasien" style="edgeLabel;html=1;align=center;verticalAlign=middle;resizable=0;points=[];fontSize=12;" parent="LYkPNBGk0QLhgLuBFVw5-8" vertex="1" connectable="0">
          <mxGeometry x="-0.1402" y="-3" relative="1" as="geometry">
            <mxPoint x="9" y="-3" as="offset" />
          </mxGeometry>
        </mxCell>
        <mxCell id="QkrbeRbu-FCpaSNZFsPW-1" value="Pasien" style="whiteSpace=wrap;html=1;aspect=fixed;fontSize=14;dashed=0;" parent="1" vertex="1">
          <mxGeometry x="190" y="354" width="120" height="120" as="geometry" />
        </mxCell>
        <mxCell id="5abQdg8BANUb2AYhFjzp-1" value="" style="endArrow=classic;html=1;rounded=0;exitX=0;exitY=0.75;exitDx=0;exitDy=0;entryX=1;entryY=1;entryDx=0;entryDy=0;" edge="1" parent="1" source="LYkPNBGk0QLhgLuBFVw5-4" target="LYkPNBGk0QLhgLuBFVw5-1">
          <mxGeometry width="50" height="50" relative="1" as="geometry">
            <mxPoint x="829.74" y="514" as="sourcePoint" />
            <mxPoint x="670" y="544" as="targetPoint" />
          </mxGeometry>
        </mxCell>
        <mxCell id="5abQdg8BANUb2AYhFjzp-2" value="Aprroval Pasien" style="edgeLabel;html=1;align=center;verticalAlign=middle;resizable=0;points=[];fontSize=12;" vertex="1" connectable="0" parent="5abQdg8BANUb2AYhFjzp-1">
          <mxGeometry x="0.1269" y="1" relative="1" as="geometry">
            <mxPoint x="18" y="-1" as="offset" />
          </mxGeometry>
        </mxCell>
        <mxCell id="awJdmknUpq07sa8L6oPT-1" value="" style="endArrow=classic;html=1;rounded=0;entryX=1;entryY=0.5;entryDx=0;entryDy=0;exitX=0;exitY=0.5;exitDx=0;exitDy=0;" edge="1" parent="1" source="LYkPNBGk0QLhgLuBFVw5-1" target="QkrbeRbu-FCpaSNZFsPW-1">
          <mxGeometry width="50" height="50" relative="1" as="geometry">
            <mxPoint x="560" y="464" as="sourcePoint" />
            <mxPoint x="610" y="414" as="targetPoint" />
          </mxGeometry>
        </mxCell>
        <mxCell id="awJdmknUpq07sa8L6oPT-2" value="Jadwal Dokter" style="edgeLabel;html=1;align=center;verticalAlign=middle;resizable=0;points=[];fontSize=12;" vertex="1" connectable="0" parent="awJdmknUpq07sa8L6oPT-1">
          <mxGeometry x="-0.1615" y="-2" relative="1" as="geometry">
            <mxPoint x="-23" y="2" as="offset" />
          </mxGeometry>
        </mxCell>
      </root>
    </mxGraphModel>
  </diagram>
  <diagram id="SqoEWXoSDAihWeAypQtA" name="Use Case Diagram">
    <mxGraphModel dx="1671" dy="1007" grid="1" gridSize="10" guides="1" tooltips="1" connect="1" arrows="1" fold="1" page="1" pageScale="1" pageWidth="827" pageHeight="1169" math="0" shadow="0">
      <root>
        <mxCell id="0" />
        <mxCell id="1" parent="0" />
        <mxCell id="htx71FLO_FKV-Db_sToj-1" value="Pasien" style="shape=umlActor;verticalLabelPosition=bottom;verticalAlign=top;html=1;" parent="1" vertex="1">
          <mxGeometry x="28" y="534" width="30" height="60" as="geometry" />
        </mxCell>
        <mxCell id="htx71FLO_FKV-Db_sToj-3" value="Admin" style="shape=umlActor;verticalLabelPosition=bottom;verticalAlign=top;html=1;outlineConnect=0;" parent="1" vertex="1">
          <mxGeometry x="768" y="534" width="30" height="60" as="geometry" />
        </mxCell>
        <mxCell id="ntv7-VRjxryP23NwJi_F-1" value="Sistem Pendaftaran Pasien" style="swimlane;fontStyle=1;align=center;horizontal=1;startSize=30;collapsible=0;html=1;whiteSpace=wrap;" parent="1" vertex="1">
          <mxGeometry x="158" y="374" width="520" height="420" as="geometry" />
        </mxCell>
        <mxCell id="ntv7-VRjxryP23NwJi_F-2" value="Use Case" style="shape=umlFrame;whiteSpace=wrap;html=1;pointerEvents=0;recursiveResize=0;container=1;collapsible=0;width=80;" parent="ntv7-VRjxryP23NwJi_F-1" vertex="1">
          <mxGeometry width="480" height="350" relative="1" as="geometry">
            <mxPoint x="20" y="50" as="offset" />
          </mxGeometry>
        </mxCell>
        <mxCell id="QiCD8WX7tbeq6t2pQG_h-1" value="Input Data Pasien" style="ellipse;whiteSpace=wrap;html=1;" parent="ntv7-VRjxryP23NwJi_F-2" vertex="1">
          <mxGeometry x="50" y="50" width="140" height="70" as="geometry" />
        </mxCell>
        <mxCell id="rIoa_4reU0bzCVfp5qzY-1" value="Bukti Pendaftaran dan Nomor Antrian" style="ellipse;whiteSpace=wrap;html=1;" parent="ntv7-VRjxryP23NwJi_F-2" vertex="1">
          <mxGeometry x="50" y="140" width="140" height="70" as="geometry" />
        </mxCell>
        <mxCell id="WujNufIBjCJ0zKkKGyqh-1" value="Manage Data Pasien" style="ellipse;whiteSpace=wrap;html=1;" vertex="1" parent="ntv7-VRjxryP23NwJi_F-2">
          <mxGeometry x="290" y="50" width="140" height="70" as="geometry" />
        </mxCell>
        <mxCell id="2JCKBSCVoSZlds3NOziO-2" value="Manage Approval Pasien" style="ellipse;whiteSpace=wrap;html=1;" vertex="1" parent="ntv7-VRjxryP23NwJi_F-2">
          <mxGeometry x="290" y="140" width="140" height="70" as="geometry" />
        </mxCell>
        <mxCell id="WujNufIBjCJ0zKkKGyqh-2" value="Manage Jadwal Dokter" style="ellipse;whiteSpace=wrap;html=1;" vertex="1" parent="ntv7-VRjxryP23NwJi_F-2">
          <mxGeometry x="290" y="240" width="140" height="70" as="geometry" />
        </mxCell>
        <mxCell id="PZ30V57n5oayTrDZzRfQ-1" value="&amp;lt;&amp;lt;include&amp;gt;&amp;gt;" style="edgeStyle=none;html=1;endArrow=open;verticalAlign=bottom;dashed=1;labelBackgroundColor=none;rounded=0;exitX=0;exitY=0.5;exitDx=0;exitDy=0;entryX=1;entryY=0.5;entryDx=0;entryDy=0;" edge="1" parent="ntv7-VRjxryP23NwJi_F-2" source="WujNufIBjCJ0zKkKGyqh-2" target="QiCD8WX7tbeq6t2pQG_h-2">
          <mxGeometry width="160" relative="1" as="geometry">
            <mxPoint x="130" y="315" as="sourcePoint" />
            <mxPoint x="290" y="315" as="targetPoint" />
          </mxGeometry>
        </mxCell>
        <mxCell id="QiCD8WX7tbeq6t2pQG_h-2" value="Lihat Jadwal Dokter" style="ellipse;whiteSpace=wrap;html=1;" parent="ntv7-VRjxryP23NwJi_F-2" vertex="1">
          <mxGeometry x="50" y="240" width="140" height="70" as="geometry" />
        </mxCell>
        <mxCell id="6rDj5MUKunOZ68686jhb-1" value="&amp;lt;&amp;lt;include&amp;gt;&amp;gt;" style="edgeStyle=none;html=1;endArrow=open;verticalAlign=bottom;dashed=1;labelBackgroundColor=none;rounded=0;entryX=0;entryY=0.5;entryDx=0;entryDy=0;exitX=1;exitY=0.5;exitDx=0;exitDy=0;" edge="1" parent="ntv7-VRjxryP23NwJi_F-2" source="rIoa_4reU0bzCVfp5qzY-1" target="2JCKBSCVoSZlds3NOziO-2">
          <mxGeometry width="160" relative="1" as="geometry">
            <mxPoint x="180" y="270" as="sourcePoint" />
            <mxPoint x="340" y="270" as="targetPoint" />
          </mxGeometry>
        </mxCell>
        <mxCell id="6rDj5MUKunOZ68686jhb-2" value="&amp;lt;&amp;lt;include&amp;gt;&amp;gt;" style="edgeStyle=none;html=1;endArrow=open;verticalAlign=bottom;dashed=1;labelBackgroundColor=none;rounded=0;entryX=0;entryY=0.5;entryDx=0;entryDy=0;exitX=1;exitY=0.5;exitDx=0;exitDy=0;" edge="1" parent="ntv7-VRjxryP23NwJi_F-2" source="QiCD8WX7tbeq6t2pQG_h-1" target="WujNufIBjCJ0zKkKGyqh-1">
          <mxGeometry width="160" relative="1" as="geometry">
            <mxPoint x="170" y="80" as="sourcePoint" />
            <mxPoint x="330" y="80" as="targetPoint" />
          </mxGeometry>
        </mxCell>
        <mxCell id="I5Vj7VzGTxBWSGYok09h-3" value="" style="edgeStyle=none;html=1;endArrow=none;verticalAlign=bottom;rounded=0;entryX=0;entryY=1;entryDx=0;entryDy=0;exitX=0.5;exitY=0.5;exitDx=0;exitDy=0;exitPerimeter=0;" parent="1" source="htx71FLO_FKV-Db_sToj-1" target="QiCD8WX7tbeq6t2pQG_h-1" edge="1">
          <mxGeometry width="160" relative="1" as="geometry">
            <mxPoint x="108" y="634" as="sourcePoint" />
            <mxPoint x="268" y="634" as="targetPoint" />
          </mxGeometry>
        </mxCell>
        <mxCell id="I5Vj7VzGTxBWSGYok09h-4" value="" style="edgeStyle=none;html=1;endArrow=none;verticalAlign=bottom;rounded=0;exitX=0.5;exitY=0.5;exitDx=0;exitDy=0;exitPerimeter=0;entryX=0;entryY=0.5;entryDx=0;entryDy=0;" parent="1" source="htx71FLO_FKV-Db_sToj-1" target="QiCD8WX7tbeq6t2pQG_h-2" edge="1">
          <mxGeometry width="160" relative="1" as="geometry">
            <mxPoint x="338" y="564" as="sourcePoint" />
            <mxPoint x="498" y="564" as="targetPoint" />
          </mxGeometry>
        </mxCell>
        <mxCell id="I5Vj7VzGTxBWSGYok09h-6" value="" style="edgeStyle=none;html=1;endArrow=none;verticalAlign=bottom;rounded=0;entryX=0.5;entryY=0.5;entryDx=0;entryDy=0;entryPerimeter=0;exitX=1;exitY=0.5;exitDx=0;exitDy=0;" parent="1" source="WujNufIBjCJ0zKkKGyqh-1" target="htx71FLO_FKV-Db_sToj-3" edge="1">
          <mxGeometry width="160" relative="1" as="geometry">
            <mxPoint x="668" y="524" as="sourcePoint" />
            <mxPoint x="498" y="564" as="targetPoint" />
          </mxGeometry>
        </mxCell>
        <mxCell id="I5Vj7VzGTxBWSGYok09h-7" value="" style="endArrow=none;html=1;rounded=0;entryX=0.5;entryY=0.5;entryDx=0;entryDy=0;entryPerimeter=0;exitX=1;exitY=0.5;exitDx=0;exitDy=0;" parent="1" source="WujNufIBjCJ0zKkKGyqh-2" target="htx71FLO_FKV-Db_sToj-3" edge="1">
          <mxGeometry width="50" height="50" relative="1" as="geometry">
            <mxPoint x="668" y="624" as="sourcePoint" />
            <mxPoint x="448" y="544" as="targetPoint" />
          </mxGeometry>
        </mxCell>
        <mxCell id="VmpEA8j0iUpPtIR3B-YM-2" value="" style="endArrow=none;html=1;rounded=0;entryX=0;entryY=0.5;entryDx=0;entryDy=0;exitX=0.5;exitY=0.5;exitDx=0;exitDy=0;exitPerimeter=0;" parent="1" source="htx71FLO_FKV-Db_sToj-1" target="rIoa_4reU0bzCVfp5qzY-1" edge="1">
          <mxGeometry width="50" height="50" relative="1" as="geometry">
            <mxPoint x="238" y="634" as="sourcePoint" />
            <mxPoint x="288" y="584" as="targetPoint" />
          </mxGeometry>
        </mxCell>
        <mxCell id="2JCKBSCVoSZlds3NOziO-3" value="" style="endArrow=none;html=1;rounded=0;exitX=1;exitY=0.5;exitDx=0;exitDy=0;entryX=0.5;entryY=0.5;entryDx=0;entryDy=0;entryPerimeter=0;" edge="1" parent="1" source="2JCKBSCVoSZlds3NOziO-2" target="htx71FLO_FKV-Db_sToj-3">
          <mxGeometry width="50" height="50" relative="1" as="geometry">
            <mxPoint x="398" y="674" as="sourcePoint" />
            <mxPoint x="448" y="624" as="targetPoint" />
          </mxGeometry>
        </mxCell>
      </root>
    </mxGraphModel>
  </diagram>
  <diagram id="83-zsSkwK48zUs9TTDW5" name="Activity Diagram">
    <mxGraphModel dx="1420" dy="856" grid="1" gridSize="10" guides="1" tooltips="1" connect="1" arrows="1" fold="1" page="1" pageScale="1" pageWidth="827" pageHeight="1169" math="0" shadow="0">
      <root>
        <mxCell id="0" />
        <mxCell id="1" parent="0" />
        <mxCell id="1xUCm_A0NEypGPISdSap-1" value="Pendaftaran Pasien" style="swimlane;html=1;childLayout=stackLayout;startSize=20;rounded=0;shadow=0;comic=0;labelBackgroundColor=none;strokeWidth=1;fontFamily=Verdana;fontSize=12;align=center;" parent="1" vertex="1">
          <mxGeometry x="129" y="10" width="570" height="1440" as="geometry" />
        </mxCell>
        <mxCell id="PqNGhXt7e9WRdPqhysJe-2" value="" style="edgeStyle=orthogonalEdgeStyle;html=1;verticalAlign=bottom;endArrow=open;endSize=8;strokeColor=#ff0000;rounded=0;entryX=0.5;entryY=0;entryDx=0;entryDy=0;exitX=0.477;exitY=0.504;exitDx=0;exitDy=0;exitPerimeter=0;" parent="1xUCm_A0NEypGPISdSap-1" source="PqNGhXt7e9WRdPqhysJe-1" target="nUrTsSMFZB00BkVTM41h-4" edge="1">
          <mxGeometry relative="1" as="geometry">
            <mxPoint x="440" y="630" as="targetPoint" />
            <Array as="points">
              <mxPoint x="139" y="540" />
              <mxPoint x="415" y="540" />
            </Array>
          </mxGeometry>
        </mxCell>
        <mxCell id="nUrTsSMFZB00BkVTM41h-1" value="" style="edgeStyle=orthogonalEdgeStyle;html=1;verticalAlign=bottom;endArrow=open;endSize=8;strokeColor=#ff0000;rounded=0;entryX=1;entryY=0.5;entryDx=0;entryDy=0;exitX=0.5;exitY=1;exitDx=0;exitDy=0;" parent="1xUCm_A0NEypGPISdSap-1" source="BTBh3s6mMBs-r3jh5aBY-3" target="iOOvgmFRk-pICuDSHi3N-17" edge="1">
          <mxGeometry relative="1" as="geometry">
            <mxPoint x="150" y="380" as="targetPoint" />
            <mxPoint x="414" y="240" as="sourcePoint" />
            <Array as="points">
              <mxPoint x="424" y="210" />
            </Array>
          </mxGeometry>
        </mxCell>
        <mxCell id="XFfQLgVPYZgJ6Qq-CJzx-2" value="" style="edgeStyle=orthogonalEdgeStyle;html=1;verticalAlign=bottom;endArrow=open;endSize=8;strokeColor=#ff0000;rounded=0;" parent="1xUCm_A0NEypGPISdSap-1" source="XFfQLgVPYZgJ6Qq-CJzx-1" target="hpnEsNDLnfpnaiSMyP2V-1" edge="1">
          <mxGeometry relative="1" as="geometry">
            <mxPoint x="135" y="890" as="targetPoint" />
          </mxGeometry>
        </mxCell>
        <mxCell id="BTBh3s6mMBs-r3jh5aBY-2" value="" style="edgeStyle=orthogonalEdgeStyle;html=1;verticalAlign=bottom;endArrow=open;endSize=8;strokeColor=#ff0000;rounded=0;entryX=0;entryY=0.5;entryDx=0;entryDy=0;" parent="1xUCm_A0NEypGPISdSap-1" source="BTBh3s6mMBs-r3jh5aBY-1" target="BTBh3s6mMBs-r3jh5aBY-3" edge="1">
          <mxGeometry relative="1" as="geometry">
            <mxPoint x="360" y="190" as="targetPoint" />
          </mxGeometry>
        </mxCell>
        <mxCell id="1xUCm_A0NEypGPISdSap-2" value="Pasien" style="swimlane;html=1;startSize=20;" parent="1xUCm_A0NEypGPISdSap-1" vertex="1">
          <mxGeometry y="20" width="290" height="1420" as="geometry">
            <mxRectangle y="20" width="40" height="1580" as="alternateBounds" />
          </mxGeometry>
        </mxCell>
        <mxCell id="VRQ1FIJ1n5C91aGxlcZh-3" value="" style="ellipse;html=1;shape=startState;fillColor=#000000;strokeColor=#ff0000;" parent="1xUCm_A0NEypGPISdSap-2" vertex="1">
          <mxGeometry x="130" y="40" width="30" height="30" as="geometry" />
        </mxCell>
        <mxCell id="VRQ1FIJ1n5C91aGxlcZh-4" value="" style="edgeStyle=orthogonalEdgeStyle;html=1;verticalAlign=bottom;endArrow=open;endSize=8;strokeColor=#ff0000;rounded=0;entryX=0.5;entryY=0;entryDx=0;entryDy=0;" parent="1xUCm_A0NEypGPISdSap-2" source="VRQ1FIJ1n5C91aGxlcZh-3" target="BTBh3s6mMBs-r3jh5aBY-1" edge="1">
          <mxGeometry relative="1" as="geometry">
            <mxPoint x="130" y="150" as="targetPoint" />
          </mxGeometry>
        </mxCell>
        <mxCell id="VRQ1FIJ1n5C91aGxlcZh-7" value="Ya" style="edgeStyle=orthogonalEdgeStyle;html=1;align=left;verticalAlign=top;endArrow=open;endSize=8;strokeColor=#ff0000;rounded=0;entryX=0.5;entryY=0;entryDx=0;entryDy=0;exitX=0.5;exitY=1;exitDx=0;exitDy=0;" parent="1xUCm_A0NEypGPISdSap-2" source="VRQ1FIJ1n5C91aGxlcZh-5" target="l4ZGFq4MWqrOZB-myKdm-1" edge="1">
          <mxGeometry x="0.2" y="-10" relative="1" as="geometry">
            <mxPoint x="70" y="360" as="targetPoint" />
            <Array as="points">
              <mxPoint x="145" y="300" />
              <mxPoint x="70" y="300" />
            </Array>
            <mxPoint as="offset" />
          </mxGeometry>
        </mxCell>
        <mxCell id="BTBh3s6mMBs-r3jh5aBY-1" value="Membuka Website Pendaftaran" style="rounded=1;whiteSpace=wrap;html=1;arcSize=40;fontColor=#000000;fillColor=#ffffc0;strokeColor=#ff0000;" parent="1xUCm_A0NEypGPISdSap-2" vertex="1">
          <mxGeometry x="85" y="110" width="120" height="40" as="geometry" />
        </mxCell>
        <mxCell id="l4ZGFq4MWqrOZB-myKdm-1" value="Parameter:&lt;br&gt;- No. RM&lt;br&gt;&lt;div style=&quot;&quot;&gt;&lt;span style=&quot;background-color: initial;&quot;&gt;- No. WhatsApp/email&lt;/span&gt;&lt;/div&gt;&lt;div style=&quot;&quot;&gt;&lt;span style=&quot;background-color: initial;&quot;&gt;- Tgl/waktu kontrol&lt;/span&gt;&lt;/div&gt;&lt;div style=&quot;&quot;&gt;&lt;span style=&quot;background-color: initial;&quot;&gt;- Dokter&lt;/span&gt;&lt;/div&gt;" style="rounded=0;whiteSpace=wrap;html=1;arcSize=10;fontColor=#000000;fillColor=#ffffc0;strokeColor=#ff0000;absoluteArcSize=1;dashed=0;align=left;" parent="1xUCm_A0NEypGPISdSap-2" vertex="1">
          <mxGeometry x="10" y="340" width="120" height="90" as="geometry" />
        </mxCell>
        <mxCell id="l4ZGFq4MWqrOZB-myKdm-2" value="" style="edgeStyle=orthogonalEdgeStyle;html=1;verticalAlign=bottom;endArrow=open;endSize=8;strokeColor=#ff0000;rounded=0;entryX=0.203;entryY=0.5;entryDx=0;entryDy=0;entryPerimeter=0;" parent="1xUCm_A0NEypGPISdSap-2" source="l4ZGFq4MWqrOZB-myKdm-1" target="PqNGhXt7e9WRdPqhysJe-1" edge="1">
          <mxGeometry relative="1" as="geometry">
            <mxPoint x="71" y="460" as="targetPoint" />
            <Array as="points" />
          </mxGeometry>
        </mxCell>
        <mxCell id="VRQ1FIJ1n5C91aGxlcZh-6" value="Tidak" style="edgeStyle=orthogonalEdgeStyle;html=1;align=left;verticalAlign=bottom;endArrow=open;endSize=8;strokeColor=#ff0000;rounded=0;entryX=0.5;entryY=0;entryDx=0;entryDy=0;exitX=1;exitY=0.5;exitDx=0;exitDy=0;" parent="1xUCm_A0NEypGPISdSap-2" source="VRQ1FIJ1n5C91aGxlcZh-5" target="sqT1WdeYne1xnie3-UmG-2" edge="1">
          <mxGeometry x="0.4286" y="-15" relative="1" as="geometry">
            <mxPoint x="245" y="410" as="targetPoint" />
            <Array as="points">
              <mxPoint x="215" y="345" />
            </Array>
            <mxPoint x="235" y="325" as="sourcePoint" />
            <mxPoint as="offset" />
          </mxGeometry>
        </mxCell>
        <mxCell id="sqT1WdeYne1xnie3-UmG-2" value="Parameter:&lt;br&gt;- Data lengkap pasien&lt;br&gt;- No. WhatsApp/email&lt;br&gt;- Tgl/waktu kontrol&lt;br&gt;- Dokter" style="rounded=0;whiteSpace=wrap;html=1;arcSize=10;fontColor=#000000;fillColor=#ffffc0;strokeColor=#ff0000;absoluteArcSize=1;dashed=0;align=left;" parent="1xUCm_A0NEypGPISdSap-2" vertex="1">
          <mxGeometry x="150" y="340" width="130" height="90" as="geometry" />
        </mxCell>
        <mxCell id="sqT1WdeYne1xnie3-UmG-3" value="" style="edgeStyle=orthogonalEdgeStyle;html=1;verticalAlign=bottom;endArrow=open;endSize=8;strokeColor=#ff0000;rounded=0;exitX=0.5;exitY=1;exitDx=0;exitDy=0;entryX=0.781;entryY=0.504;entryDx=0;entryDy=0;entryPerimeter=0;" parent="1xUCm_A0NEypGPISdSap-2" source="sqT1WdeYne1xnie3-UmG-2" target="PqNGhXt7e9WRdPqhysJe-1" edge="1">
          <mxGeometry relative="1" as="geometry">
            <mxPoint x="215" y="480" as="targetPoint" />
            <Array as="points" />
          </mxGeometry>
        </mxCell>
        <mxCell id="PqNGhXt7e9WRdPqhysJe-1" value="" style="shape=line;html=1;strokeWidth=6;strokeColor=#ff0000;" parent="1xUCm_A0NEypGPISdSap-2" vertex="1">
          <mxGeometry x="20" y="400" width="250" height="170" as="geometry" />
        </mxCell>
        <mxCell id="hpnEsNDLnfpnaiSMyP2V-1" value="Menerima Bukti Pendaftaran dan Nomor Antrian" style="rounded=1;whiteSpace=wrap;html=1;arcSize=40;fontColor=#000000;fillColor=#ffffc0;strokeColor=#ff0000;" parent="1xUCm_A0NEypGPISdSap-2" vertex="1">
          <mxGeometry x="75" y="815" width="140" height="60" as="geometry" />
        </mxCell>
        <mxCell id="hpnEsNDLnfpnaiSMyP2V-2" value="" style="edgeStyle=orthogonalEdgeStyle;html=1;verticalAlign=bottom;endArrow=open;endSize=8;strokeColor=#ff0000;rounded=0;entryX=0.5;entryY=0;entryDx=0;entryDy=0;" parent="1xUCm_A0NEypGPISdSap-2" source="hpnEsNDLnfpnaiSMyP2V-1" target="iOOvgmFRk-pICuDSHi3N-2" edge="1">
          <mxGeometry relative="1" as="geometry">
            <mxPoint x="135" y="960" as="targetPoint" />
          </mxGeometry>
        </mxCell>
        <mxCell id="iOOvgmFRk-pICuDSHi3N-2" value="Datang Mengantri sesuai Nomor Antrian" style="rounded=1;whiteSpace=wrap;html=1;arcSize=40;fontColor=#000000;fillColor=#ffffc0;strokeColor=#ff0000;" parent="1xUCm_A0NEypGPISdSap-2" vertex="1">
          <mxGeometry x="70" y="910" width="150" height="50" as="geometry" />
        </mxCell>
        <mxCell id="iOOvgmFRk-pICuDSHi3N-5" value="" style="edgeStyle=orthogonalEdgeStyle;html=1;align=left;verticalAlign=bottom;endArrow=open;endSize=8;strokeColor=#ff0000;rounded=0;entryX=0.5;entryY=0;entryDx=0;entryDy=0;" parent="1xUCm_A0NEypGPISdSap-2" source="iOOvgmFRk-pICuDSHi3N-4" target="iOOvgmFRk-pICuDSHi3N-9" edge="1">
          <mxGeometry x="-1" relative="1" as="geometry">
            <mxPoint x="270" y="1090" as="targetPoint" />
            <Array as="points">
              <mxPoint x="220" y="1090" />
            </Array>
          </mxGeometry>
        </mxCell>
        <mxCell id="TE9ccokPgO5V1bCJ6K9e-2" value="Tidak" style="edgeLabel;html=1;align=center;verticalAlign=middle;resizable=0;points=[];" parent="iOOvgmFRk-pICuDSHi3N-5" vertex="1" connectable="0">
          <mxGeometry x="-0.0536" y="1" relative="1" as="geometry">
            <mxPoint as="offset" />
          </mxGeometry>
        </mxCell>
        <mxCell id="iOOvgmFRk-pICuDSHi3N-6" value="" style="edgeStyle=orthogonalEdgeStyle;html=1;align=left;verticalAlign=top;endArrow=open;endSize=8;strokeColor=#ff0000;rounded=0;entryX=0.5;entryY=0;entryDx=0;entryDy=0;" parent="1xUCm_A0NEypGPISdSap-2" source="iOOvgmFRk-pICuDSHi3N-4" target="iOOvgmFRk-pICuDSHi3N-7" edge="1">
          <mxGeometry x="-1" relative="1" as="geometry">
            <mxPoint x="130" y="1170" as="targetPoint" />
          </mxGeometry>
        </mxCell>
        <mxCell id="TE9ccokPgO5V1bCJ6K9e-5" value="Ya" style="edgeLabel;html=1;align=center;verticalAlign=middle;resizable=0;points=[];" parent="iOOvgmFRk-pICuDSHi3N-6" vertex="1" connectable="0">
          <mxGeometry x="-0.6129" y="-1" relative="1" as="geometry">
            <mxPoint as="offset" />
          </mxGeometry>
        </mxCell>
        <mxCell id="iOOvgmFRk-pICuDSHi3N-7" value="Registrasi Ulang di Mesin APM" style="rounded=1;whiteSpace=wrap;html=1;arcSize=40;fontColor=#000000;fillColor=#ffffc0;strokeColor=#ff0000;" parent="1xUCm_A0NEypGPISdSap-2" vertex="1">
          <mxGeometry x="10" y="1200" width="120" height="60" as="geometry" />
        </mxCell>
        <mxCell id="iOOvgmFRk-pICuDSHi3N-8" value="" style="edgeStyle=orthogonalEdgeStyle;html=1;verticalAlign=bottom;endArrow=open;endSize=8;strokeColor=#ff0000;rounded=0;" parent="1xUCm_A0NEypGPISdSap-2" source="iOOvgmFRk-pICuDSHi3N-7" edge="1">
          <mxGeometry relative="1" as="geometry">
            <mxPoint x="70" y="1300" as="targetPoint" />
          </mxGeometry>
        </mxCell>
        <mxCell id="iOOvgmFRk-pICuDSHi3N-9" value="Registrasi Ulang di Loket Pendaftaran Online" style="rounded=1;whiteSpace=wrap;html=1;arcSize=40;fontColor=#000000;fillColor=#ffffc0;strokeColor=#ff0000;" parent="1xUCm_A0NEypGPISdSap-2" vertex="1">
          <mxGeometry x="160" y="1200" width="120" height="60" as="geometry" />
        </mxCell>
        <mxCell id="iOOvgmFRk-pICuDSHi3N-10" value="" style="edgeStyle=orthogonalEdgeStyle;html=1;verticalAlign=bottom;endArrow=open;endSize=8;strokeColor=#ff0000;rounded=0;entryX=0.5;entryY=0;entryDx=0;entryDy=0;" parent="1xUCm_A0NEypGPISdSap-2" source="iOOvgmFRk-pICuDSHi3N-9" edge="1">
          <mxGeometry relative="1" as="geometry">
            <mxPoint x="220" y="1300" as="targetPoint" />
            <Array as="points">
              <mxPoint x="220" y="1290" />
              <mxPoint x="220" y="1290" />
            </Array>
          </mxGeometry>
        </mxCell>
        <mxCell id="iOOvgmFRk-pICuDSHi3N-15" value="" style="shape=line;html=1;strokeWidth=6;strokeColor=#ff0000;" parent="1xUCm_A0NEypGPISdSap-2" vertex="1">
          <mxGeometry x="45" y="1300" width="200" height="10" as="geometry" />
        </mxCell>
        <mxCell id="iOOvgmFRk-pICuDSHi3N-17" value="Mengisi Formulir Pendaftaran Pasien" style="rounded=1;whiteSpace=wrap;html=1;arcSize=40;fontColor=#000000;fillColor=#ffffc0;strokeColor=#ff0000;" parent="1xUCm_A0NEypGPISdSap-2" vertex="1">
          <mxGeometry x="85" y="170" width="120" height="40" as="geometry" />
        </mxCell>
        <mxCell id="nUrTsSMFZB00BkVTM41h-15" value="" style="edgeStyle=orthogonalEdgeStyle;html=1;verticalAlign=bottom;endArrow=open;endSize=8;strokeColor=#ff0000;rounded=0;exitX=0.5;exitY=1;exitDx=0;exitDy=0;" parent="1xUCm_A0NEypGPISdSap-2" source="iOOvgmFRk-pICuDSHi3N-17" target="VRQ1FIJ1n5C91aGxlcZh-5" edge="1">
          <mxGeometry relative="1" as="geometry">
            <mxPoint x="80" y="280" as="targetPoint" />
            <mxPoint x="165" y="250" as="sourcePoint" />
            <Array as="points" />
          </mxGeometry>
        </mxCell>
        <mxCell id="VRQ1FIJ1n5C91aGxlcZh-5" value="Pasien Lama?" style="whiteSpace=wrap;html=1;fontColor=#000000;fillColor=#ffffc0;strokeColor=#ff0000;shape=rhombus;perimeter=rhombusPerimeter;" parent="1xUCm_A0NEypGPISdSap-2" vertex="1">
          <mxGeometry x="80" y="240" width="130" height="50" as="geometry" />
        </mxCell>
        <mxCell id="iQF0Mdg4Mge9GNlQ8FtA-1" value="" style="edgeStyle=orthogonalEdgeStyle;html=1;verticalAlign=bottom;endArrow=open;endSize=8;strokeColor=#ff0000;rounded=0;" parent="1xUCm_A0NEypGPISdSap-2" source="iOOvgmFRk-pICuDSHi3N-2" target="iOOvgmFRk-pICuDSHi3N-4" edge="1">
          <mxGeometry relative="1" as="geometry">
            <mxPoint x="165" y="1090" as="targetPoint" />
            <mxPoint x="165" y="1000" as="sourcePoint" />
          </mxGeometry>
        </mxCell>
        <mxCell id="iOOvgmFRk-pICuDSHi3N-4" value="Pasien Lama BPJS?" style="rhombus;whiteSpace=wrap;html=1;fontColor=#000000;fillColor=#ffffc0;strokeColor=#ff0000;" parent="1xUCm_A0NEypGPISdSap-2" vertex="1">
          <mxGeometry x="70" y="1000" width="150" height="80" as="geometry" />
        </mxCell>
        <mxCell id="TE9ccokPgO5V1bCJ6K9e-1" value="" style="edgeStyle=orthogonalEdgeStyle;html=1;verticalAlign=bottom;endArrow=open;endSize=8;strokeColor=#ff0000;rounded=0;" parent="1xUCm_A0NEypGPISdSap-2" source="iOOvgmFRk-pICuDSHi3N-15" target="VRQ1FIJ1n5C91aGxlcZh-8" edge="1">
          <mxGeometry relative="1" as="geometry">
            <mxPoint x="160" y="1523" as="targetPoint" />
            <mxPoint x="165" y="1350" as="sourcePoint" />
          </mxGeometry>
        </mxCell>
        <mxCell id="VRQ1FIJ1n5C91aGxlcZh-8" value="" style="ellipse;html=1;shape=endState;fillColor=#000000;strokeColor=#ff0000;" parent="1xUCm_A0NEypGPISdSap-2" vertex="1">
          <mxGeometry x="130" y="1360" width="30" height="30" as="geometry" />
        </mxCell>
        <mxCell id="1xUCm_A0NEypGPISdSap-11" value="Sistem" style="swimlane;html=1;startSize=20;" parent="1xUCm_A0NEypGPISdSap-1" vertex="1">
          <mxGeometry x="290" y="20" width="280" height="1420" as="geometry" />
        </mxCell>
        <mxCell id="BTBh3s6mMBs-r3jh5aBY-3" value="Menampilkan Halaman Pendaftaran" style="rounded=1;whiteSpace=wrap;html=1;arcSize=40;fontColor=#000000;fillColor=#ffffc0;strokeColor=#ff0000;" parent="1xUCm_A0NEypGPISdSap-11" vertex="1">
          <mxGeometry x="59" y="110" width="150" height="40" as="geometry" />
        </mxCell>
        <mxCell id="PqNGhXt7e9WRdPqhysJe-7" value="Data Lengkap&lt;br&gt;dan Valid?" style="whiteSpace=wrap;html=1;fontColor=#000000;fillColor=#ffffc0;strokeColor=#ff0000;shape=rhombus;perimeter=rhombusPerimeter;" parent="1xUCm_A0NEypGPISdSap-11" vertex="1">
          <mxGeometry x="45" y="630" width="160" height="60" as="geometry" />
        </mxCell>
        <mxCell id="nUrTsSMFZB00BkVTM41h-4" value="Pengecekan Kelengkapan dan Validitas Data" style="rounded=1;whiteSpace=wrap;html=1;arcSize=40;fontColor=#000000;fillColor=#ffffc0;strokeColor=#ff0000;" parent="1xUCm_A0NEypGPISdSap-11" vertex="1">
          <mxGeometry x="55" y="540" width="140" height="50" as="geometry" />
        </mxCell>
        <mxCell id="nUrTsSMFZB00BkVTM41h-5" value="" style="edgeStyle=orthogonalEdgeStyle;html=1;verticalAlign=bottom;endArrow=open;endSize=8;strokeColor=#ff0000;rounded=0;entryX=0.5;entryY=0;entryDx=0;entryDy=0;" parent="1xUCm_A0NEypGPISdSap-11" source="nUrTsSMFZB00BkVTM41h-4" target="PqNGhXt7e9WRdPqhysJe-7" edge="1">
          <mxGeometry relative="1" as="geometry">
            <mxPoint x="124" y="720" as="targetPoint" />
          </mxGeometry>
        </mxCell>
        <mxCell id="nUrTsSMFZB00BkVTM41h-9" value="Tidak" style="edgeStyle=orthogonalEdgeStyle;html=1;align=left;verticalAlign=top;endArrow=open;endSize=8;strokeColor=#ff0000;rounded=0;exitX=1;exitY=0.5;exitDx=0;exitDy=0;entryX=1;entryY=0.5;entryDx=0;entryDy=0;" parent="1xUCm_A0NEypGPISdSap-11" source="PqNGhXt7e9WRdPqhysJe-7" target="BTBh3s6mMBs-r3jh5aBY-3" edge="1">
          <mxGeometry x="0.1168" y="20" relative="1" as="geometry">
            <mxPoint x="200" y="330" as="targetPoint" />
            <Array as="points">
              <mxPoint x="230" y="660" />
              <mxPoint x="230" y="130" />
            </Array>
            <mxPoint x="190" y="410" as="sourcePoint" />
            <mxPoint as="offset" />
          </mxGeometry>
        </mxCell>
        <mxCell id="XFfQLgVPYZgJ6Qq-CJzx-1" value="Mengirim Bukti Pendaftaran via WhatsApp/email" style="rounded=1;whiteSpace=wrap;html=1;arcSize=40;fontColor=#000000;fillColor=#ffffc0;strokeColor=#ff0000;" parent="1xUCm_A0NEypGPISdSap-11" vertex="1">
          <mxGeometry x="55" y="820" width="140" height="50" as="geometry" />
        </mxCell>
        <mxCell id="L-qTTHeL0USY4cX6IHGp-1" value="" style="edgeStyle=orthogonalEdgeStyle;html=1;align=left;verticalAlign=top;endArrow=open;endSize=8;strokeColor=#ff0000;rounded=0;exitX=0.5;exitY=1;exitDx=0;exitDy=0;" parent="1xUCm_A0NEypGPISdSap-11" source="PqNGhXt7e9WRdPqhysJe-7" target="nUrTsSMFZB00BkVTM41h-11" edge="1">
          <mxGeometry x="-0.75" y="-10" relative="1" as="geometry">
            <mxPoint x="440" y="810" as="targetPoint" />
            <Array as="points" />
            <mxPoint x="435" y="730" as="sourcePoint" />
            <mxPoint as="offset" />
          </mxGeometry>
        </mxCell>
        <mxCell id="L-qTTHeL0USY4cX6IHGp-2" value="Ya" style="edgeLabel;html=1;align=center;verticalAlign=middle;resizable=0;points=[];" parent="L-qTTHeL0USY4cX6IHGp-1" vertex="1" connectable="0">
          <mxGeometry x="0.0238" y="-1" relative="1" as="geometry">
            <mxPoint as="offset" />
          </mxGeometry>
        </mxCell>
        <mxCell id="nUrTsSMFZB00BkVTM41h-11" value="Menampilkan Halaman Konfirmasi Pendaftaran" style="rounded=1;whiteSpace=wrap;html=1;arcSize=40;fontColor=#000000;fillColor=#ffffc0;strokeColor=#ff0000;" parent="1xUCm_A0NEypGPISdSap-11" vertex="1">
          <mxGeometry x="55" y="740" width="140" height="50" as="geometry" />
        </mxCell>
        <mxCell id="L-qTTHeL0USY4cX6IHGp-3" value="" style="edgeStyle=orthogonalEdgeStyle;html=1;align=left;verticalAlign=top;endArrow=open;endSize=8;strokeColor=#ff0000;rounded=0;entryX=0.5;entryY=0;entryDx=0;entryDy=0;" parent="1xUCm_A0NEypGPISdSap-11" source="nUrTsSMFZB00BkVTM41h-11" target="XFfQLgVPYZgJ6Qq-CJzx-1" edge="1">
          <mxGeometry x="-0.75" y="-10" relative="1" as="geometry">
            <mxPoint x="170" y="860" as="targetPoint" />
            <Array as="points" />
            <mxPoint x="170" y="810" as="sourcePoint" />
            <mxPoint as="offset" />
          </mxGeometry>
        </mxCell>
      </root>
    </mxGraphModel>
  </diagram>
  <diagram id="wXu1phKJyccF8WY5NH54" name="Sequence Diagram">
    <mxGraphModel dx="1420" dy="856" grid="1" gridSize="10" guides="1" tooltips="1" connect="1" arrows="1" fold="1" page="1" pageScale="1" pageWidth="1169" pageHeight="827" math="0" shadow="0">
      <root>
        <mxCell id="0" />
        <mxCell id="1" parent="0" />
        <mxCell id="11iilpCxRqwN4MhnAJVN-2" value="" style="shape=umlLifeline;perimeter=lifelinePerimeter;whiteSpace=wrap;html=1;container=1;dropTarget=0;collapsible=0;recursiveResize=0;outlineConnect=0;portConstraint=eastwest;newEdgeStyle={&quot;curved&quot;:0,&quot;rounded&quot;:0};participant=umlActor;size=40;" parent="1" vertex="1">
          <mxGeometry x="308" y="193" width="20" height="471" as="geometry" />
        </mxCell>
        <mxCell id="11iilpCxRqwN4MhnAJVN-5" value="" style="html=1;points=[[0,0,0,0,5],[0,1,0,0,-5],[1,0,0,0,5],[1,1,0,0,-5]];perimeter=orthogonalPerimeter;outlineConnect=0;targetShapes=umlLifeline;portConstraint=eastwest;newEdgeStyle={&quot;curved&quot;:0,&quot;rounded&quot;:0};" parent="11iilpCxRqwN4MhnAJVN-2" vertex="1">
          <mxGeometry x="5" y="80" width="10" height="390" as="geometry" />
        </mxCell>
        <mxCell id="11iilpCxRqwN4MhnAJVN-4" value="" style="shape=umlLifeline;perimeter=lifelinePerimeter;whiteSpace=wrap;html=1;container=1;dropTarget=0;collapsible=0;recursiveResize=0;outlineConnect=0;portConstraint=eastwest;newEdgeStyle={&quot;curved&quot;:0,&quot;rounded&quot;:0};participant=umlControl;" parent="1" vertex="1">
          <mxGeometry x="638" y="193" width="40" height="471" as="geometry" />
        </mxCell>
        <mxCell id="11iilpCxRqwN4MhnAJVN-7" value="" style="html=1;points=[[0,0,0,0,5],[0,1,0,0,-5],[1,0,0,0,5],[1,1,0,0,-5]];perimeter=orthogonalPerimeter;outlineConnect=0;targetShapes=umlLifeline;portConstraint=eastwest;newEdgeStyle={&quot;curved&quot;:0,&quot;rounded&quot;:0};" parent="11iilpCxRqwN4MhnAJVN-4" vertex="1">
          <mxGeometry x="15" y="270" width="10" height="50" as="geometry" />
        </mxCell>
        <mxCell id="veAj-ezpdjvT-3tJiLBk-16" value="5.1.1: Data Belum Lengkap/Tidak Valid" style="html=1;verticalAlign=bottom;endArrow=block;curved=0;rounded=0;" edge="1" parent="11iilpCxRqwN4MhnAJVN-4" source="11iilpCxRqwN4MhnAJVN-7" target="11iilpCxRqwN4MhnAJVN-7">
          <mxGeometry x="0.3333" y="-98" width="80" relative="1" as="geometry">
            <mxPoint x="30" y="291" as="sourcePoint" />
            <mxPoint x="110" y="291" as="targetPoint" />
            <mxPoint x="98" y="98" as="offset" />
          </mxGeometry>
        </mxCell>
        <mxCell id="veAj-ezpdjvT-3tJiLBk-19" value="" style="html=1;points=[[0,0,0,0,5],[0,1,0,0,-5],[1,0,0,0,5],[1,1,0,0,-5]];perimeter=orthogonalPerimeter;outlineConnect=0;targetShapes=umlLifeline;portConstraint=eastwest;newEdgeStyle={&quot;curved&quot;:0,&quot;rounded&quot;:0};" vertex="1" parent="11iilpCxRqwN4MhnAJVN-4">
          <mxGeometry x="15" y="351" width="10" height="39" as="geometry" />
        </mxCell>
        <mxCell id="Za6RVsTD5XKi6AyRIcee-1" value="" style="shape=umlLifeline;perimeter=lifelinePerimeter;whiteSpace=wrap;html=1;container=1;dropTarget=0;collapsible=0;recursiveResize=0;outlineConnect=0;portConstraint=eastwest;newEdgeStyle={&quot;curved&quot;:0,&quot;rounded&quot;:0};participant=umlBoundary;" parent="1" vertex="1">
          <mxGeometry x="463" y="193" width="50" height="471" as="geometry" />
        </mxCell>
        <mxCell id="Za6RVsTD5XKi6AyRIcee-2" value="" style="html=1;points=[[0,0,0,0,5],[0,1,0,0,-5],[1,0,0,0,5],[1,1,0,0,-5]];perimeter=orthogonalPerimeter;outlineConnect=0;targetShapes=umlLifeline;portConstraint=eastwest;newEdgeStyle={&quot;curved&quot;:0,&quot;rounded&quot;:0};" parent="Za6RVsTD5XKi6AyRIcee-1" vertex="1">
          <mxGeometry x="20" y="80" width="10" height="190" as="geometry" />
        </mxCell>
        <mxCell id="veAj-ezpdjvT-3tJiLBk-17" value="" style="html=1;points=[[0,0,0,0,5],[0,1,0,0,-5],[1,0,0,0,5],[1,1,0,0,-5]];perimeter=orthogonalPerimeter;outlineConnect=0;targetShapes=umlLifeline;portConstraint=eastwest;newEdgeStyle={&quot;curved&quot;:0,&quot;rounded&quot;:0};" vertex="1" parent="Za6RVsTD5XKi6AyRIcee-1">
          <mxGeometry x="20" y="411" width="10" height="39" as="geometry" />
        </mxCell>
        <mxCell id="0JU2DTaaFrh_Oi-wS6rf-4" value="" style="shape=umlLifeline;perimeter=lifelinePerimeter;whiteSpace=wrap;html=1;container=1;dropTarget=0;collapsible=0;recursiveResize=0;outlineConnect=0;portConstraint=eastwest;newEdgeStyle={&quot;curved&quot;:0,&quot;rounded&quot;:0};participant=umlEntity;" parent="1" vertex="1">
          <mxGeometry x="808" y="193" width="40" height="461" as="geometry" />
        </mxCell>
        <mxCell id="0JU2DTaaFrh_Oi-wS6rf-5" value="" style="html=1;points=[[0,0,0,0,5],[0,1,0,0,-5],[1,0,0,0,5],[1,1,0,0,-5]];perimeter=orthogonalPerimeter;outlineConnect=0;targetShapes=umlLifeline;portConstraint=eastwest;newEdgeStyle={&quot;curved&quot;:0,&quot;rounded&quot;:0};" parent="0JU2DTaaFrh_Oi-wS6rf-4" vertex="1">
          <mxGeometry x="15" y="350" width="10" height="80" as="geometry" />
        </mxCell>
        <mxCell id="0JU2DTaaFrh_Oi-wS6rf-9" value="" style="edgeStyle=elbowEdgeStyle;fontSize=12;html=1;endArrow=blockThin;endFill=1;rounded=0;" parent="1" edge="1" target="11iilpCxRqwN4MhnAJVN-7" source="Za6RVsTD5XKi6AyRIcee-2">
          <mxGeometry width="160" relative="1" as="geometry">
            <mxPoint x="493" y="333" as="sourcePoint" />
            <mxPoint x="653" y="333" as="targetPoint" />
          </mxGeometry>
        </mxCell>
        <mxCell id="Qwi23cvoNDb_1te_Uat1-1" value="5.1: Pengecekan Data" style="edgeLabel;html=1;align=center;verticalAlign=middle;resizable=0;points=[];" parent="0JU2DTaaFrh_Oi-wS6rf-9" vertex="1" connectable="0">
          <mxGeometry x="-0.1583" y="1" relative="1" as="geometry">
            <mxPoint x="13" y="-9" as="offset" />
          </mxGeometry>
        </mxCell>
        <mxCell id="mJrOckimb3Sogj1cZ6tZ-3" value="&lt;font style=&quot;font-size: 10px;&quot;&gt;Alternative&lt;/font&gt;" style="shape=umlFrame;whiteSpace=wrap;html=1;pointerEvents=0;" parent="1" vertex="1">
          <mxGeometry x="531" y="454" width="350" height="130" as="geometry" />
        </mxCell>
        <mxCell id="5q0d0gWPCMTPKmg_Ufq0-1" value="" style="html=1;verticalAlign=bottom;endArrow=open;dashed=1;endSize=8;curved=0;rounded=0;entryX=1;entryY=0;entryDx=0;entryDy=5;entryPerimeter=0;" parent="1" target="veAj-ezpdjvT-3tJiLBk-17" edge="1" source="0JU2DTaaFrh_Oi-wS6rf-5">
          <mxGeometry relative="1" as="geometry">
            <mxPoint x="808" y="614" as="sourcePoint" />
            <mxPoint x="501" y="614" as="targetPoint" />
          </mxGeometry>
        </mxCell>
        <mxCell id="nk47uJBrsKM_AXc3z-79-1" value="6.1: Menampilkan Bukti Pendaftaran&amp;nbsp;&lt;span style=&quot;font-size: 12px; background-color: rgb(251, 251, 251);&quot;&gt;dan Nomor Antrian&lt;/span&gt;" style="edgeLabel;html=1;align=center;verticalAlign=middle;resizable=0;points=[];" parent="5q0d0gWPCMTPKmg_Ufq0-1" vertex="1" connectable="0">
          <mxGeometry relative="1" as="geometry">
            <mxPoint x="5" y="-9" as="offset" />
          </mxGeometry>
        </mxCell>
        <mxCell id="9iyhcM9e2G0NbRDxRRF_-1" value="Pasien" style="text;html=1;align=center;verticalAlign=middle;resizable=0;points=[];autosize=1;strokeColor=none;fillColor=none;" vertex="1" parent="1">
          <mxGeometry x="288" y="163" width="60" height="30" as="geometry" />
        </mxCell>
        <mxCell id="9iyhcM9e2G0NbRDxRRF_-2" value="Formulir" style="text;html=1;align=center;verticalAlign=middle;resizable=0;points=[];autosize=1;strokeColor=none;fillColor=none;" vertex="1" parent="1">
          <mxGeometry x="453" y="163" width="70" height="30" as="geometry" />
        </mxCell>
        <mxCell id="9iyhcM9e2G0NbRDxRRF_-3" value="Control" style="text;html=1;align=center;verticalAlign=middle;resizable=0;points=[];autosize=1;strokeColor=none;fillColor=none;" vertex="1" parent="1">
          <mxGeometry x="628" y="163" width="60" height="30" as="geometry" />
        </mxCell>
        <mxCell id="9iyhcM9e2G0NbRDxRRF_-4" value="Saved Data" style="text;html=1;align=center;verticalAlign=middle;resizable=0;points=[];autosize=1;strokeColor=none;fillColor=none;" vertex="1" parent="1">
          <mxGeometry x="783" y="163" width="90" height="30" as="geometry" />
        </mxCell>
        <mxCell id="veAj-ezpdjvT-3tJiLBk-2" value="&lt;font style=&quot;font-size: 9px;&quot;&gt;2: Menampilkan Formulir&lt;/font&gt;" style="html=1;verticalAlign=bottom;endArrow=open;dashed=1;endSize=8;curved=0;rounded=0;" edge="1" parent="1" target="11iilpCxRqwN4MhnAJVN-5">
          <mxGeometry relative="1" as="geometry">
            <mxPoint x="481" y="314" as="sourcePoint" />
            <mxPoint x="401" y="314" as="targetPoint" />
          </mxGeometry>
        </mxCell>
        <mxCell id="veAj-ezpdjvT-3tJiLBk-11" value="&lt;font style=&quot;font-size: 9px;&quot;&gt;1: Pilih Formulir Pendaftaran&lt;/font&gt;" style="html=1;verticalAlign=bottom;endArrow=block;curved=0;rounded=0;" edge="1" parent="1" target="Za6RVsTD5XKi6AyRIcee-2">
          <mxGeometry width="80" relative="1" as="geometry">
            <mxPoint x="323" y="284" as="sourcePoint" />
            <mxPoint x="487.5" y="284" as="targetPoint" />
          </mxGeometry>
        </mxCell>
        <mxCell id="veAj-ezpdjvT-3tJiLBk-12" value="&lt;font style=&quot;font-size: 9px;&quot;&gt;3: Input Data Pasien Lengkap&lt;/font&gt;" style="html=1;verticalAlign=bottom;endArrow=block;curved=0;rounded=0;" edge="1" parent="1" target="Za6RVsTD5XKi6AyRIcee-2">
          <mxGeometry width="80" relative="1" as="geometry">
            <mxPoint x="323" y="344" as="sourcePoint" />
            <mxPoint x="483" y="344" as="targetPoint" />
          </mxGeometry>
        </mxCell>
        <mxCell id="veAj-ezpdjvT-3tJiLBk-13" value="&lt;font style=&quot;font-size: 9px;&quot;&gt;4: Memilih Jadwal Dokter&lt;/font&gt;" style="html=1;verticalAlign=bottom;endArrow=block;curved=0;rounded=0;" edge="1" parent="1" target="Za6RVsTD5XKi6AyRIcee-2">
          <mxGeometry width="80" relative="1" as="geometry">
            <mxPoint x="323" y="374" as="sourcePoint" />
            <mxPoint x="483" y="374" as="targetPoint" />
          </mxGeometry>
        </mxCell>
        <mxCell id="veAj-ezpdjvT-3tJiLBk-14" value="&lt;font style=&quot;font-size: 9px;&quot;&gt;5: Mengklik submit/daftar&lt;/font&gt;" style="html=1;verticalAlign=bottom;endArrow=block;curved=0;rounded=0;" edge="1" parent="1" target="Za6RVsTD5XKi6AyRIcee-2">
          <mxGeometry width="80" relative="1" as="geometry">
            <mxPoint x="323" y="404" as="sourcePoint" />
            <mxPoint x="483" y="404" as="targetPoint" />
          </mxGeometry>
        </mxCell>
        <mxCell id="veAj-ezpdjvT-3tJiLBk-18" value="6: Data Disimpan" style="html=1;verticalAlign=bottom;endArrow=block;curved=0;rounded=0;" edge="1" parent="1" source="veAj-ezpdjvT-3tJiLBk-19" target="0JU2DTaaFrh_Oi-wS6rf-4">
          <mxGeometry width="80" relative="1" as="geometry">
            <mxPoint x="691" y="564" as="sourcePoint" />
            <mxPoint x="781" y="564" as="targetPoint" />
          </mxGeometry>
        </mxCell>
        <mxCell id="BxtncAk9uYB3o1i81mOi-1" value="" style="endArrow=none;dashed=1;html=1;rounded=0;entryX=0.002;entryY=0.504;entryDx=0;entryDy=0;entryPerimeter=0;exitX=0.997;exitY=0.504;exitDx=0;exitDy=0;exitPerimeter=0;" edge="1" parent="1" source="mJrOckimb3Sogj1cZ6tZ-3" target="mJrOckimb3Sogj1cZ6tZ-3">
          <mxGeometry width="50" height="50" relative="1" as="geometry">
            <mxPoint x="621" y="504" as="sourcePoint" />
            <mxPoint x="671" y="454" as="targetPoint" />
          </mxGeometry>
        </mxCell>
        <mxCell id="BxtncAk9uYB3o1i81mOi-2" value="&lt;font style=&quot;font-size: 10px;&quot;&gt;[if data invalid]&lt;br&gt;[else]&lt;/font&gt;" style="text;html=1;align=left;verticalAlign=middle;resizable=0;points=[];autosize=1;strokeColor=none;fillColor=none;" vertex="1" parent="1">
          <mxGeometry x="538" y="499" width="90" height="40" as="geometry" />
        </mxCell>
      </root>
    </mxGraphModel>
  </diagram>
</mxfile>
